<?xml version="1.0" encoding="iso-8859-1"?>
<!-- Generator: Adobe Illustrator 19.0.0, SVG Export Plug-In . SVG Version: 6.00 Build 0)  -->
<svg version="1.1" id="Layer_1" xmlns="http://www.w3.org/2000/svg" xmlns:xlink="http://www.w3.org/1999/xlink" x="0px" y="0px"
	 viewBox="0 0 480 480" style="enable-background:new 0 0 480 480;" xml:space="preserve">
<g id="XMLID_3163_">
	<path id="XMLID_2723_" style="fill:#C6524A;" d="M445.981,231.593L320.959,378.781c-20.828,24.521-50.903,36.848-80.959,36.195
		c-30.056,0.653-60.131-11.674-80.959-36.195L34.019,231.593C-2.423,188.69,3.242,124.727,46.671,88.727l0,0
		c43.43-36,108.179-30.404,144.621,12.499l41.086,48.371c1.997,2.351,4.809,3.526,7.622,3.526s5.625-1.175,7.622-3.526
		l41.086-48.371c36.442-42.903,101.191-48.499,144.621-12.499l0,0C476.759,124.727,482.423,188.69,445.981,231.593z"/>
	<path id="XMLID_2729_" style="fill:#BC4946;" d="M445.981,231.593L320.959,378.781c-0.351,0.413-0.711,0.813-1.066,1.219H320
		c-20.143,22.976-48.535,34.874-77.17,34.998c-0.943,0.005-1.886-0.002-2.83-0.023c-0.943,0.021-1.886,0.028-2.83,0.023
		C208.535,414.874,180.143,402.976,160,380h0.108c-0.356-0.406-0.716-0.806-1.066-1.219L34.019,231.593
		C-2.423,188.69,3.241,124.727,46.671,88.727l0,0c14.982-12.419,32.501-19.886,50.52-22.579
		c12.729-1.902,19.749,14.135,9.807,22.309c-0.109,0.09-0.218,0.18-0.328,0.27l0,0c-43.43,36-49.095,99.963-12.653,142.865
		c0,0,88.289,103.92,117.113,137.84c5.7,6.706,14.053,10.568,22.853,10.568h5.909h0.215h5.909c8.8,0,17.153-3.862,22.852-10.567
		c28.824-33.92,117.113-137.84,117.113-137.84c36.442-42.903,30.777-106.866-12.653-142.865l0,0c-0.109-0.09-0.218-0.18-0.328-0.27
		c-9.942-8.173-2.922-24.211,9.807-22.309c18.019,2.693,35.538,10.16,50.521,22.579l0,0
		C476.759,124.727,482.423,188.69,445.981,231.593z"/>
	<path id="XMLID_2725_" style="fill:#D3625F;" d="M240,414.975c-30.056,0.653-60.131-11.674-80.959-36.195L34.019,231.593
		C-2.423,188.69,3.241,124.727,46.671,88.727l0,0c43.43-36,108.179-30.404,144.621,12.499l41.086,48.371
		c1.997,2.351,4.809,3.526,7.622,3.526V414.975z"/>
	<path id="XMLID_2727_" style="fill:#D86F6F;" d="M240,414.975c-0.943,0.021-1.887,0.028-2.83,0.023
		C208.535,414.874,180.143,402.976,160,380h0.108c-0.356-0.406-0.716-0.806-1.066-1.219L34.019,231.593
		C-2.423,188.69,3.241,124.727,46.671,88.727l0,0c14.982-12.419,32.501-19.886,50.52-22.579
		c12.729-1.902,19.749,14.135,9.807,22.309c-0.109,0.09-0.218,0.18-0.327,0.27l0,0c-43.43,36-49.095,99.963-12.653,142.866
		c0,0,88.289,103.92,117.113,137.84C216.83,376.138,225.183,380,233.983,380h5.909L240,414.975z"/>
	<path id="XMLID_2718_" style="fill:#9E3B3B;" d="M480,238.244c0,5.522-4.478,10-10,10H360c-2.863,0-5.594,1.23-7.491,3.376
		l-70.077,78.261c-5.813,6.572-13.931,10.115-22.316,10.116c-3.585,0-7.218-0.647-10.741-1.982
		C237.604,333.557,230,322.545,230,309.96V150.04c0-6.334-4.865-8.729-6.356-9.313c-1.483-0.581-6.64-2.11-10.925,2.458
		l-75.221,85.246c-0.05,0.058-0.101,0.113-0.152,0.169c-5.661,6.129-13.693,9.644-22.036,9.644H10c-5.522,0-10-4.478-10-10
		s4.478-10,10-10h105.31c2.749,0,5.397-1.146,7.28-3.146l75.222-85.246c0.05-0.058,0.102-0.113,0.152-0.17
		c8.441-9.138,21.383-12.113,32.966-7.58C242.515,126.633,250,137.6,250,150.04v159.92c0,6.407,4.943,8.777,6.458,9.352
		c1.514,0.572,6.785,2.074,11.033-2.727l70.077-78.262c5.652-6.389,13.843-10.079,22.432-10.079h110
		C475.522,228.244,480,232.722,480,238.244z"/>
	<path id="XMLID_2485_" style="fill:#FFBCAB;" d="M480,268.244c0,5.522-4.478,10-10,10H308.284c-2.671,0-5.182,1.04-7.07,2.929
		l-20,20c-5.813,5.813-13.301,8.863-21.023,8.863c-3.892,0-7.844-0.774-11.671-2.36C237.096,302.944,230,292.324,230,279.96v-33.432
		c0-6.2-4.725-8.639-6.173-9.238c-1.448-0.601-6.516-2.217-10.898,2.168l-20,20c-5.666,5.666-13.199,8.786-21.213,8.786H10
		c-5.522,0-10-4.478-10-10s4.478-10,10-10h161.716c2.671,0,5.182-1.04,7.07-2.929l20-20c8.743-8.743,21.272-11.235,32.694-6.503
		c11.424,4.731,18.52,15.352,18.52,27.716v33.432c0,6.2,4.725,8.639,6.173,9.238c1.448,0.602,6.516,2.217,10.898-2.168l20-20
		c5.666-5.666,13.199-8.786,21.213-8.786H470C475.522,258.244,480,262.722,480,268.244z"/>
</g>
<g>
</g>
<g>
</g>
<g>
</g>
<g>
</g>
<g>
</g>
<g>
</g>
<g>
</g>
<g>
</g>
<g>
</g>
<g>
</g>
<g>
</g>
<g>
</g>
<g>
</g>
<g>
</g>
<g>
</g>
</svg>
